# xmcd CD database file
#
# Track frame offsets:
#	150
#	13887
#	23589
#	34114
#	45474
#	51284
#	60852
#	71456
#	82734
#	93114
#	97796
#
# Disc length: 1378 seconds
#
# Revision: 0
# Processed by: cddbd v1.5PL3 Copyright (c) Steve Scherf et al.
# Submitted via: CDex 1.50beta9
#
DISCID=7005600b
DTITLE=Nobodys - Why can you stand?
DYEAR=1900
DGENRE=New Age
TTITLE0=Only tonight
TTITLE1=Why can you stand?
TTITLE2=Cheese steak
TTITLE3=The best one
TTITLE4=I hate fuckin' myself
TTITLE5=You're just my stimulant
TTITLE6=I wanna stay young
TTITLE7=Success sacrifice yourself
TTITLE8=Graduation
TTITLE9=Dog
TTITLE10=夕凪
EXTD=
EXTT0=
EXTT1=
EXTT2=
EXTT3=
EXTT4=
EXTT5=
EXTT6=
EXTT7=
EXTT8=
EXTT9=
EXTT10=
PLAYORDER=
